<svg id="Layer_1" data-name="Layer 1" xmlns="http://www.w3.org/2000/svg" viewBox="0 0 1200 1200"><defs><style>.cls-1{fill:#383838;}.cls-2{fill:#00e479;}</style></defs><path class="cls-1" d="M614.45,454.78a160.72,160.72,0,0,1-75.67-287.11l82.3,120.65L711,289l-.71-152.66H517.43c-126.76,0-229.51,102.76-229.51,229.52S390.67,595.41,517.44,595.41c109.06,0,200.29-76.1,223.65-178.08A160.34,160.34,0,0,1,614.45,454.78Z"/><path class="cls-1" d="M912.05,532c1.36-43.32-34.26-78.86-77.6-79.34s-76.05,33.9-75.87,76.74c.11,25.16,10.63,44.15,32,58.25,16.31,10.78,37.18,14.49,51.62,7.51L811.28,636l24.51,18.46L901.89,567C908.1,558,911.6,546.35,912.05,532Z"/><path class="cls-1" d="M127.26,750.85c27.7,0,45,15.45,50.17,38.12l-24.88,6.42c-1.81-12-9.64-22.07-24.88-22.07s-26.89,12-26.89,30.1,10.63,30.1,26.89,30.1c15.24,0,22.27-8.83,24.88-21.87l24.88,6.22C172.61,840.54,155.16,856,127.26,856c-28.89,0-51.77-21.66-51.77-52.57S98.37,750.85,127.26,750.85Z"/><path class="cls-1" d="M238.21,750.85c26.49,0,45.15,15.45,45.15,39.53v62.8H258.48v-14h-2.81c-3.21,6.62-10.23,16.85-31.3,16.85-22.48,0-37.33-12-37.33-31.1C187,809,200.89,798,220,796l38.12-4.22v-3.21c0-9.23-6.82-17.25-20.86-17.25-5.61,0-16.09,1.26-22.05,14l-20.47-12.45C202.52,761.46,211.72,750.85,238.21,750.85Zm-7.63,84.28c17.66,0,27.49-10.44,27.49-24.09v-2.4l-30.49,3.61c-9.44,1.21-14.05,5.42-14.05,11.24C213.53,830.31,219.35,835.13,230.58,835.13Z"/><path class="cls-1" d="M302,753.66h24.88v14h2.81c5.22-8.42,14-16.85,31.7-16.85,24.88,0,45.76,22.07,45.76,52.57S386.26,856,361.38,856c-17.66,0-26.48-8.42-31.7-16.85h-2.41v41.07H302Zm79.86,49.76c0-19.26-12-30.1-27.29-30.1-15.65,0-27.29,11.24-27.29,30.1s11.64,30.1,27.29,30.1C369.81,833.52,381.85,822.69,381.85,803.42Z"/><path class="cls-1" d="M437.52,707.5c10,0,17.86,7,17.86,17.26S447.55,742,437.52,742s-17.86-7-17.86-17.26S427.48,707.5,437.52,707.5Zm12.64,145.68H424.88V753.66h25.28Z"/><path class="cls-1" d="M479.35,753.66v-30.2h25.28v30.2h17.74v21.27H504.63v51c0,4,2,6,5.62,6h16v21.26H499c-11.24,0-19.67-8-19.67-19.26v-59H469.06V753.66Z"/><path class="cls-1" d="M721.07,753.66v14.85h2.8c4.22-9.64,12.44-16.46,26.29-16.46,12.84,0,22.27,6.82,26.49,16.85h2.81c4.41-9.22,12.44-16.85,28.29-16.85,18.26,0,32.91,13.85,32.91,34.52v66.61H815.37V788.57c0-9.23-6.62-14.45-16.25-14.45-10.43,0-18.06,6-18.06,18.46v60.6H755.78V788.57c0-9.23-6.62-14.45-16.26-14.45-10.43,0-18,6-18,18.46v60.6H696.18V753.66Z"/><path class="cls-1" d="M872,707.5c10,0,17.86,7,17.86,17.26S882,742,872,742s-17.86-7-17.86-17.26S861.92,707.5,872,707.5ZM884.6,853.18H859.31V753.66H884.6Z"/><path class="cls-1" d="M928.06,754.4v16.05h2.81c4-9.23,13.25-17.66,31.51-17.66,22.07,0,38.72,15.85,38.72,41.73v59.4H975.82v-57c0-13.85-8-22.08-22.47-22.08-16.26,0-24.89,10-24.89,27.69v51.37H903.18V754.4Z"/><path class="cls-1" d="M1124.51,853.18h-24.89v-14h-2.81c-5.21,8.43-14,16.85-31.7,16.85-24.88,0-45.75-22.07-45.75-52.57s20.87-52.57,45.75-52.57c17.66,0,26.49,8.43,31.7,16.85h2.41V723.46h25.29Zm-79.87-49.76c0,19.27,12,30.1,27.29,30.1,15.65,0,27.29-11.23,27.29-30.1s-11.64-30.1-27.29-30.1C1056.68,773.32,1044.64,784.16,1044.64,803.42Z"/><polygon class="cls-1" points="677.54 723.46 652.24 723.46 652.22 853.18 677.5 853.18 677.54 723.46"/><path class="cls-1" d="M588.46,750.82c26.49,0,45.15,15.45,45.15,39.52v62.81H608.73v-14h-2.81c-3.21,6.62-10.23,16.86-31.3,16.86-22.48,0-37.33-12-37.33-31.11C537.29,809,551.14,798,570.2,796l38.13-4.22v-3.2c0-9.23-6.83-17.26-20.87-17.26-5.6,0-16.09,1.26-22.05,14L545,772.86C552.77,761.42,562,750.82,588.46,750.82Zm-7.62,84.27c17.66,0,27.49-10.44,27.49-24.08v-2.4l-30.5,3.61c-9.43,1.2-14.05,5.42-14.05,11.23C563.78,830.27,569.6,835.09,580.84,835.09Z"/><path class="cls-2" d="M199.29,924.2h24.84v14h2.8c5.22-8.41,14-16.83,31.66-16.83,24.84,0,45.68,22,45.68,52.49s-20.84,52.49-45.68,52.49c-17.63,0-26.44-8.42-31.66-16.82h-2.4v54.08H199.29ZM279,973.88c0-19.23-12-30-27.24-30-15.63,0-27.25,11.21-27.25,30s11.62,30,27.25,30C267,1003.93,279,993.11,279,973.88Z"/><path class="cls-2" d="M349.52,938.63h2.8c3.81-11,12.22-14.83,24.85-14.83h9.61v22H372c-12.82,0-22,6.81-22,20.83v56.9H324.68V924.2h24.84Z"/><path class="cls-2" d="M444.46,921.39c28.85,0,48.28,20.24,48.28,50.09v9.42H420.42c1,13.62,10.42,23.84,24.84,23.84,14,0,21.43-7.82,24.84-14.83l20.64,12c-6.81,10.42-18.43,24.44-45.08,24.44-29.65,0-51.08-22.44-51.08-53.29C394.58,943,415.21,921.39,444.46,921.39Zm22.64,42.68c-1.4-13-9.82-21-22.84-21-14.23,0-22,8.42-23.64,21Z"/><path class="cls-2" d="M537.2,924.2V939H540c4.21-9.62,12.42-16.43,26.25-16.43,12.82,0,22.23,6.81,26.44,16.83h2.81c4.4-9.22,12.41-16.83,28.24-16.83,18.23,0,32.86,13.82,32.86,34.46v66.51H631.35V959.06c0-9.21-6.61-14.42-16.22-14.42-10.42,0-18,6-18,18.42v60.51H571.85V959.06c0-9.21-6.61-14.42-16.22-14.42-10.42,0-18,6-18,18.42v60.51H512.36V924.2Z"/><path class="cls-2" d="M694.43,878.13c10,0,17.83,7,17.83,17.22s-7.81,17.23-17.83,17.23-17.83-7-17.83-17.23S684.42,878.13,694.43,878.13Zm12.62,145.44H681.81V924.2h25.24Z"/><path class="cls-2" d="M805.21,1023.57v-16H802.4c-4,9.21-13.22,17.63-31.45,17.63-22,0-38.66-15.83-38.66-41.67V924.2h25.24v56.89c0,13.83,8,22,22.43,22,16.23,0,24.85-10,24.85-27.64V924.2h25.24v99.37Z"/><path class="cls-2" d="M881.31,924.2V939h2.8c4.21-9.62,12.43-16.43,26.25-16.43,12.82,0,22.24,6.81,26.45,16.83h2.8C944,930.21,952,922.6,967.85,922.6c18.23,0,32.86,13.82,32.86,34.46v66.51H975.47V959.06c0-9.21-6.61-14.42-16.23-14.42-10.41,0-18,6-18,18.42v60.51H916V959.06c0-9.21-6.61-14.42-16.23-14.42-10.41,0-18,6-18,18.42v60.51H856.47V924.2Z"/></svg>